<svg width="60" height="60" viewBox="0 0 60 60" fill="none" xmlns="http://www.w3.org/2000/svg">
<g clip-path="url(#clip0_0_179)">
<path fill-rule="evenodd" clip-rule="evenodd" d="M18.1371 55.9227H6.53781C6.08086 55.9227 5.72937 55.5712 5.72937 55.1142V47.1353C5.72937 46.6784 6.08086 46.3269 6.53781 46.3269H18.1371C18.594 46.3269 18.9455 46.6784 18.9455 47.1353V55.1142C18.9455 55.5712 18.594 55.9227 18.1371 55.9227ZM7.34624 54.3058H17.3287V47.9438H7.34624V54.3058Z" fill="#6DCFAF"/>
<path fill-rule="evenodd" clip-rule="evenodd" d="M29.7364 55.9227H18.1371C17.6802 55.9227 17.3287 55.5712 17.3287 55.1142V37.9262C17.3287 37.4692 17.6802 37.1178 18.1371 37.1178H29.7364C30.1934 37.1178 30.58 37.4692 30.58 37.9262V55.1142C30.58 55.5712 30.1934 55.9227 29.7364 55.9227ZM18.9455 54.3058H28.928V38.7698H18.9455V54.3058Z" fill="#6DCFAF"/>
<path fill-rule="evenodd" clip-rule="evenodd" d="M41.3709 55.9227H29.7364C29.2795 55.9227 28.928 55.5712 28.928 55.1142V28.1195C28.928 27.6977 29.2795 27.3111 29.7364 27.3111H41.3709C41.8278 27.3111 42.1793 27.6977 42.1793 28.1195V55.1142C42.1793 55.5712 41.8278 55.9227 41.3709 55.9227ZM30.58 54.3058H40.5273V28.9631H30.58V54.3058Z" fill="#6DCFAF"/>
<path fill-rule="evenodd" clip-rule="evenodd" d="M52.9702 55.9227H41.3709C40.9139 55.9227 40.5273 55.5712 40.5273 55.1142V16.6608C40.5273 16.239 40.9139 15.8524 41.3709 15.8524H52.9702C53.4271 15.8524 53.7786 16.239 53.7786 16.6608V55.1142C53.7786 55.5712 53.4271 55.9227 52.9702 55.9227ZM42.1793 54.3058H52.1617V17.5044H42.1793V54.3058Z" fill="#6DCFAF"/>
<path fill-rule="evenodd" clip-rule="evenodd" d="M58.6643 59.6485H0.808436C0.351494 59.6485 0 59.2618 0 58.8049V55.1142C0 54.6573 0.351494 54.3058 0.808436 54.3058H58.6643C59.1213 54.3058 59.5079 54.6573 59.5079 55.1142V58.8049C59.5079 59.2618 59.1213 59.6485 58.6643 59.6485ZM1.65202 57.9965H57.8559V55.9227H1.65202V57.9965Z" fill="#6DCFAF"/>
<path fill-rule="evenodd" clip-rule="evenodd" d="M13.427 44.9209H3.16342C2.70647 44.9209 2.35498 44.5343 2.35498 44.0773C2.35498 43.6204 2.70647 43.2689 3.16342 43.2689H12.5835V33.5325C12.5835 33.0756 12.9701 32.7241 13.427 32.7241H22.8471V22.9877C22.8471 22.5307 23.1986 22.1441 23.6555 22.1441H33.1107V12.4429C33.1107 11.9859 33.4622 11.5993 33.9191 11.5993H44.1827C44.6045 11.5993 44.9912 11.9859 44.9912 12.4429C44.9912 12.8647 44.6045 13.2513 44.1827 13.2513H34.7276V22.9877C34.7276 23.4446 34.3761 23.7961 33.9191 23.7961H24.4991V33.5325C24.4991 33.9894 24.1124 34.3409 23.6555 34.3409H14.2355V44.0773C14.2355 44.5343 13.8488 44.9209 13.427 44.9209Z" fill="#6DCFAF"/>
<path fill-rule="evenodd" clip-rule="evenodd" d="M48.2953 14.7627C48.1547 14.7627 47.9789 14.6924 47.8383 14.587C47.5571 14.4112 47.4517 14.0949 47.522 13.7786L48.2953 9.56063L45.2021 6.64323C44.9561 6.43233 44.8858 6.08084 44.9561 5.79964C45.0615 5.4833 45.3427 5.2724 45.6591 5.23725L49.9121 4.71001L51.7048 0.808428C51.8454 0.527233 52.1265 0.351486 52.4429 0.351486C52.7944 0.351486 53.0756 0.527233 53.2162 0.808428L55.0088 4.71001L59.2619 5.23725C59.5782 5.2724 59.8594 5.4833 59.9649 5.79964C60.0352 6.08084 59.9649 6.43233 59.7188 6.64323L56.5905 9.56063L57.399 13.7786C57.4693 14.0949 57.3287 14.4112 57.0826 14.587C56.8366 14.7979 56.4851 14.7979 56.2039 14.6573L52.4429 12.5835L48.7171 14.6573C48.5765 14.7276 48.4359 14.7627 48.2953 14.7627ZM47.5923 6.64323L49.7715 8.68189C49.9824 8.89279 50.0527 9.17398 50.0176 9.45518L49.4552 12.3726L52.0562 10.9315C52.3023 10.7909 52.6186 10.7909 52.8647 10.9315L55.4657 12.3726L54.9033 9.45518C54.8682 9.17398 54.9385 8.89279 55.1494 8.68189L57.3287 6.64323L54.3761 6.25658C54.0949 6.22143 53.8489 6.04569 53.7434 5.79964L52.4429 3.09314L51.1775 5.79964C51.0721 6.04569 50.826 6.22143 50.5448 6.25658L47.5923 6.64323Z" fill="#6DCFAF"/>
</g>
<defs>
<clipPath id="clip0_0_179">
<rect width="60" height="60" fill="white"/>
</clipPath>
</defs>
</svg>
