<svg width="60" height="60" viewBox="0 0 60 60" fill="none" xmlns="http://www.w3.org/2000/svg">
<g clip-path="url(#clip0_0_198)">
<path d="M16.2398 26.5309C17.078 26.5309 17.8747 26.2066 18.4827 25.618C18.8315 25.2804 18.8405 24.724 18.5029 24.3752C18.1654 24.0266 17.6089 24.0173 17.2601 24.3551C16.9817 24.6247 16.6192 24.7731 16.2397 24.7731H15.9639C15.5845 24.7731 15.222 24.6246 14.9434 24.3551C14.5946 24.0173 14.0382 24.0265 13.7007 24.3752C13.3631 24.7241 13.3721 25.2805 13.7208 25.618C14.3289 26.2066 15.1256 26.5309 15.9638 26.5309H16.2398Z" fill="#6DCFAF"/>
<path d="M58.5352 5.90519H30.2129C29.4052 5.90519 28.7481 6.56226 28.7481 7.37004V9.00527C28.7481 9.81304 29.4052 10.4701 30.2129 10.4701H30.5054V28.735C30.5054 29.5427 31.1625 30.1998 31.9703 30.1998H32.3355L29.2948 34.2369C28.6017 33.8948 27.8225 33.7016 26.9988 33.7016H20.2184V29.9796C22.2742 28.8069 23.7289 26.6979 23.9958 24.2364H25.4825C27.2182 24.2364 28.6302 22.8244 28.6302 21.0888C28.6302 20.1048 28.176 19.2251 27.4665 18.6475V10.0158C27.4665 6.22277 24.3802 3.13687 20.5864 3.13687H14.4364C12.6424 3.13687 11.016 4.09793 10.1445 5.62945H9.32227C6.79512 5.62945 4.73906 7.6855 4.73906 10.2127V11.7994C4.73906 12.2849 5.13258 12.6783 5.61797 12.6783C6.10336 12.6783 6.49687 12.2849 6.49687 11.7994V10.2127C6.49687 8.65465 7.76426 7.38726 9.32227 7.38726H10.6898C11.044 7.38726 11.3636 7.1748 11.5004 6.84808C11.9979 5.66144 13.1503 4.89468 14.4363 4.89468H20.5863C23.4108 4.89468 25.7086 7.19203 25.7086 10.0158V17.9502C25.6338 17.9448 25.5586 17.9412 25.4824 17.9412H24.0409V13.792C24.0409 13.3102 23.8398 12.8442 23.4892 12.5139C23.1368 12.1819 22.6567 12.0075 22.1725 12.0369C19.2218 12.2127 16.1714 11.5475 13.584 10.1636C13.1036 9.90656 12.5667 9.77062 12.0316 9.77062H10.8817C9.38285 9.77062 8.16352 10.99 8.16352 12.4888V17.9412C8.16352 17.9412 6.57129 17.9448 6.49687 17.9501V15.9009C6.49687 15.4154 6.10336 15.022 5.61797 15.022C5.13258 15.022 4.73906 15.4154 4.73906 15.9009V18.6465C4.02891 19.2241 3.57422 20.1043 3.57422 21.0889C3.57422 22.8246 4.98621 24.2365 6.72188 24.2365H8.20852C8.475 26.6982 9.92988 28.8075 11.9859 29.9802V33.7017H5.20559C2.33777 33.7017 0.00257812 36.0349 0 38.9035V52.4938C0 54.9033 1.9602 56.8634 4.36957 56.8634H4.82109C5.58727 56.8634 6.34266 56.6609 7.00594 56.2779L8.06719 55.6651H31.3254C31.8108 55.6651 32.2043 55.2717 32.2043 54.7862V38.9073C32.2043 37.4928 31.6364 36.2091 30.7177 35.2698L34.5363 30.1999H43.6187V31.4729C42.5279 31.8408 41.74 32.8727 41.74 34.0861C41.74 35.6067 42.977 36.8436 44.4976 36.8436C46.0181 36.8436 47.2552 35.6066 47.2552 34.0861C47.2552 32.8727 46.4672 31.8409 45.3765 31.4729V30.1999H56.7778C57.5856 30.1999 58.2427 29.5428 58.2427 28.7351V10.4701H58.5352C59.3429 10.4701 60 9.81304 60 9.00527V7.37004C60 6.56226 59.3429 5.90519 58.5352 5.90519ZM14.5559 35.4594L13.3691 37.4527L11.1014 35.4594H14.5559ZM21.1029 35.4595L18.8353 37.4528L17.6484 35.4595H21.1029ZM25.4824 19.699C26.2488 19.699 26.8723 20.3224 26.8723 21.0888C26.8723 21.8551 26.2488 22.4785 25.4824 22.4785H24.0409V19.6989H25.4824V19.699ZM5.33191 21.0888C5.33191 20.3224 5.95535 19.699 6.72176 19.699H8.1634V22.4787H6.72176C5.95535 22.4785 5.33191 21.8551 5.33191 21.0888ZM9.92121 23.4185V12.4887C9.92121 11.9591 10.352 11.5283 10.8816 11.5283H12.0315C12.2783 11.5283 12.5285 11.5923 12.7548 11.7134C15.6246 13.2486 19.0065 13.9864 22.283 13.7905V23.4173C22.283 26.6119 19.6841 29.2107 16.4897 29.2107H15.7136C12.5196 29.2107 9.92121 26.6123 9.92121 23.4185ZM13.7436 30.7062C14.372 30.8762 15.0321 30.9686 15.7136 30.9686H16.4897C17.1715 30.9686 17.8318 30.8761 18.4604 30.7059V33.7016H13.7436V30.7062ZM30.4465 38.9072V53.9072H26.8048V49.0035C26.8048 48.518 26.4112 48.1246 25.9259 48.1246C25.4405 48.1246 25.047 48.518 25.047 49.0035V53.9072H11.1118L14.8636 51.7412C15.2839 51.4985 15.428 50.961 15.1853 50.5406C14.9426 50.1203 14.405 49.9764 13.9847 50.2189L6.1268 54.7555C5.73047 54.9845 5.27895 55.1054 4.82098 55.1054H4.36945C2.92934 55.1054 1.7577 53.9338 1.7577 52.4937V38.9041C1.75934 37.0046 3.30598 35.4593 5.20547 35.4593H8.43879L12.4733 39.0057C12.7431 39.2428 13.0856 39.3703 13.4387 39.3703C13.515 39.3703 13.5919 39.3643 13.6685 39.3524C14.1 39.2843 14.4755 39.0299 14.6988 38.6548L16.1019 36.2984L17.505 38.6546C17.7284 39.0299 18.1039 39.2843 18.5353 39.3524C18.612 39.3644 18.6888 39.3703 18.7651 39.3703C19.1182 39.3703 19.4607 39.2428 19.7307 39.0056L23.765 35.4594H26.9986C27.4241 35.4594 27.8317 35.5375 28.2083 35.679L25.2169 39.6506C24.1352 38.994 22.737 38.9306 21.5659 39.6067L7.15734 47.9258V45.3375C7.15734 44.852 6.76383 44.4586 6.27844 44.4586C5.79305 44.4586 5.39953 44.852 5.39953 45.3375V49.4481C5.39953 49.7621 5.56711 50.0522 5.83898 50.2092C5.97492 50.2877 6.12668 50.327 6.27844 50.327C6.4302 50.327 6.58195 50.2877 6.71789 50.2092L17.7456 43.8424L19.5664 46.9962L17.6278 48.1154C17.2075 48.3581 17.0634 48.8957 17.3061 49.316C17.5488 49.7364 18.0864 49.8803 18.5067 49.6377L25.1447 45.8053C25.9725 45.3274 26.5646 44.5557 26.8121 43.6324C27.0588 42.7118 26.9332 41.7503 26.4587 40.9241L29.6425 36.6971C30.1439 37.2961 30.4465 38.0668 30.4465 38.9072ZM21.0888 46.1173L19.268 42.9635L22.445 41.1292C23.3143 40.6271 24.4304 40.9262 24.9325 41.7957C25.1756 42.217 25.2402 42.7077 25.1143 43.1775C24.9885 43.6473 24.6872 44.0399 24.2659 44.2832L21.0888 46.1173ZM44.4976 35.0857C43.9463 35.0857 43.4978 34.6372 43.4978 34.086C43.4978 33.5347 43.9463 33.0862 44.4976 33.0862C45.0489 33.0862 45.4973 33.5347 45.4973 34.086C45.4973 34.6372 45.0489 35.0857 44.4976 35.0857ZM30.5059 7.663H58.2422V8.7123H30.5059V7.663ZM56.4848 28.442H35.8603L37.5634 26.1809C37.8554 25.7931 37.7779 25.2419 37.3901 24.9499C37.0023 24.658 36.4513 24.7356 36.1593 25.1232L33.6595 28.442H32.2632V10.4701H56.4848V28.442Z" fill="#6DCFAF"/>
</g>
<defs>
<clipPath id="clip0_0_198">
<rect width="60" height="60" fill="white"/>
</clipPath>
</defs>
</svg>
