<svg width="60" height="60" viewBox="0 0 60 60" fill="none" xmlns="http://www.w3.org/2000/svg">
<g clip-path="url(#clip0_0_202)">
<path d="M56.4841 32.0608V26.485C56.4841 25.5142 55.6971 24.7272 54.7263 24.7272C51.0949 24.7272 47.7094 25.0337 44.5108 25.6594C42.6462 23.8589 40.3731 22.5525 37.9116 21.8384C40.5957 19.5794 42.3045 16.197 42.3045 12.4226C42.3045 5.57307 36.7846 0.000701904 29.9998 0.000701904C23.215 0.000701904 17.6952 5.57307 17.6952 12.4226C17.6952 16.197 19.404 19.5794 22.0882 21.8383C19.6266 22.5525 17.3536 23.8589 15.489 25.6593C12.2904 25.0337 8.90483 24.7271 5.27343 24.7271C4.30265 24.7271 3.51562 25.5141 3.51562 26.4849V32.0607C1.46965 32.7863 0 34.7402 0 37.0318V40.5474C0 42.839 1.46965 44.7928 3.51562 45.5185V51.0942C3.51562 52.065 4.30265 52.852 5.27343 52.852C14.4643 52.852 22.0115 55.0297 29.0249 59.7053C29.6126 60.0969 30.3868 60.0979 30.9751 59.7053C37.9885 55.0297 45.5356 52.852 54.7266 52.852C55.6974 52.852 56.4844 52.065 56.4844 51.0942V45.5185C58.5304 44.7928 60 42.839 60 40.5474V37.0318C59.9998 34.7403 58.5301 32.7864 56.4841 32.0608ZM21.2108 12.4226C21.2108 7.51159 25.1535 3.51632 29.9998 3.51632C34.8461 3.51632 38.7889 7.51159 38.7889 12.4226C38.7889 17.2688 34.8461 21.2116 29.9998 21.2116C25.1535 21.2116 21.2108 17.2688 21.2108 12.4226ZM5.27331 42.3053C4.30405 42.3053 3.5155 41.5168 3.5155 40.5475V37.0319C3.5155 36.0626 4.30405 35.2741 5.27331 35.2741C6.24257 35.2741 7.03112 36.0626 7.03112 37.0319V40.5475C7.03112 41.5168 6.24257 42.3053 5.27331 42.3053ZM28.242 55.0887C21.8608 51.4394 15.0132 49.5949 7.03112 49.3619V45.5186C9.07709 44.793 10.5467 42.8391 10.5467 40.5475V37.0319C10.5467 34.7403 9.07709 32.7864 7.03112 32.0608V28.2677C15.2906 28.5047 21.9296 30.4497 28.242 34.4688V55.0887ZM29.9998 31.4232C26.7554 29.376 23.3783 27.8173 19.7731 26.722C21.7541 25.4346 24.086 24.7272 26.4842 24.7272H33.5154C35.9137 24.7272 38.2456 25.4346 40.2265 26.722C36.6214 27.8173 33.2442 29.376 29.9998 31.4232ZM52.9685 49.3619C44.9866 49.5949 38.1387 51.4398 31.7576 55.0889V34.4702C38.0702 30.4508 44.7087 28.5046 52.9685 28.2677V32.0608C50.9226 32.7864 49.4529 34.7403 49.4529 37.0319V40.5475C49.4529 42.8391 50.9226 44.793 52.9685 45.5186V49.3619ZM56.4841 40.5475C56.4841 41.5168 55.6956 42.3053 54.7263 42.3053C53.7571 42.3053 52.9685 41.5168 52.9685 40.5475V37.0319C52.9685 36.0626 53.7571 35.2741 54.7263 35.2741C55.6956 35.2741 56.4841 36.0626 56.4841 37.0319V40.5475Z" fill="#6DCFAF"/>
</g>
<defs>
<clipPath id="clip0_0_202">
<rect width="60" height="60" fill="white"/>
</clipPath>
</defs>
</svg>
