<svg width="60" height="60" viewBox="0 0 60 60" fill="none" xmlns="http://www.w3.org/2000/svg">
<path d="M57.5 53.75H2.5C2.16848 53.75 1.85054 53.6183 1.61612 53.3839C1.3817 53.1495 1.25 52.8315 1.25 52.5V17.5C1.25 17.1685 1.3817 16.8505 1.61612 16.6161C1.85054 16.3817 2.16848 16.25 2.5 16.25H10C10.3315 16.25 10.6495 16.3817 10.8839 16.6161C11.1183 16.8505 11.25 17.1685 11.25 17.5C11.25 17.8315 11.1183 18.1495 10.8839 18.3839C10.6495 18.6183 10.3315 18.75 10 18.75H3.75V51.25H56.25V18.75H50C49.6685 18.75 49.3505 18.6183 49.1161 18.3839C48.8817 18.1495 48.75 17.8315 48.75 17.5C48.75 17.1685 48.8817 16.8505 49.1161 16.6161C49.3505 16.3817 49.6685 16.25 50 16.25H57.5C57.8315 16.25 58.1495 16.3817 58.3839 16.6161C58.6183 16.8505 58.75 17.1685 58.75 17.5V52.5C58.75 52.8315 58.6183 53.1495 58.3839 53.3839C58.1495 53.6183 57.8315 53.75 57.5 53.75Z" fill="#F05B72"/>
<path d="M30 53.75C29.702 53.75 29.4139 53.6436 29.1875 53.45C26.6152 51.254 23.5676 49.6862 20.2853 48.8705C17.003 48.0548 13.576 48.0135 10.275 48.75C10.0905 48.7914 9.89903 48.7904 9.71499 48.7471C9.53095 48.7038 9.35913 48.6193 9.21247 48.5C9.0641 48.3797 8.94527 48.227 8.8651 48.0537C8.78493 47.8803 8.74554 47.6909 8.74997 47.5V9.99999C8.75057 9.77386 8.81251 9.55213 8.92917 9.35842C9.04584 9.16471 9.21287 9.00627 9.41247 8.89999C12.671 7.16228 16.3071 6.25333 20 6.25333C23.6929 6.25333 27.329 7.16228 30.5875 8.89999C30.7871 9.00627 30.9541 9.16471 31.0708 9.35842C31.1874 9.55213 31.2494 9.77386 31.25 9.99999V52.5C31.2506 52.7391 31.1826 52.9733 31.0541 53.1749C30.9256 53.3765 30.7419 53.5371 30.525 53.6375C30.3595 53.7104 30.1808 53.7487 30 53.75ZM15 45.7125C16.7692 45.7115 18.5334 45.9 20.2625 46.275C23.3038 46.9627 26.1849 48.2272 28.75 50V10.7625C26.0238 9.43611 23.0317 8.74686 20 8.74686C16.9682 8.74686 13.9762 9.43611 11.25 10.7625V46C12.4903 45.8046 13.7443 45.7085 15 45.7125Z" fill="#F05B72"/>
<path d="M30 53.75C29.8095 53.7508 29.6214 53.708 29.45 53.625C29.2396 53.5219 29.0624 53.3618 28.9387 53.1629C28.8149 52.964 28.7495 52.7343 28.75 52.5V9.99999C28.7506 9.77386 28.8125 9.55213 28.9292 9.35842C29.0459 9.16471 29.2129 9.00627 29.4125 8.89999C32.671 7.16228 36.3071 6.25333 40 6.25333C43.6929 6.25333 47.329 7.16228 50.5875 8.89999C50.7871 9.00627 50.9541 9.16471 51.0708 9.35842C51.1875 9.55213 51.2494 9.77386 51.25 9.99999V47.5C51.2503 47.6836 51.2101 47.8651 51.1324 48.0314C51.0546 48.1978 50.9411 48.345 50.8 48.4625C50.6588 48.5748 50.4962 48.6572 50.3221 48.7045C50.148 48.7518 49.9661 48.763 49.7875 48.7375C47.0339 48.25 44.2161 48.25 41.4625 48.7375C37.564 49.4315 33.8922 51.0615 30.7625 53.4875C30.5443 53.6568 30.2762 53.7491 30 53.75ZM31.25 10.7625V50.1C36.4331 46.7519 42.6229 45.3194 48.75 46.05V10.7625C46.0238 9.43611 43.0317 8.74686 40 8.74686C36.9683 8.74686 33.9762 9.43611 31.25 10.7625Z" fill="#F05B72"/>
</svg>
