<svg width="6" height="11" viewBox="0 0 6 11" fill="none" xmlns="http://www.w3.org/2000/svg">
<path d="M4.91982 0.00177578C5.14312 0.0212903 5.36555 0.0443534 5.58797 0.0576588C5.67623 0.0629809 5.69742 0.09491 5.69742 0.175629C5.69742 0.690991 5.69742 1.20636 5.69742 1.72083C5.69742 1.80953 5.66299 1.83437 5.57826 1.83526C5.20844 1.83526 4.83862 1.81929 4.46879 1.85122C4.36964 1.8583 4.27162 1.87675 4.17664 1.90622C3.91185 1.99492 3.77857 2.19184 3.73532 2.45883C3.71866 2.55759 3.71039 2.65759 3.71061 2.75776C3.71061 3.13652 3.71061 3.51528 3.71061 3.89493C3.71061 3.98363 3.73797 4.0129 3.82623 4.01201C4.38141 4.01201 4.93659 4.01201 5.49176 4.01201C5.63299 4.01201 5.63387 4.01201 5.61622 4.1566C5.54296 4.73405 5.46881 5.30973 5.39909 5.88896C5.38761 5.97766 5.33907 5.9954 5.26139 5.9954C4.79183 5.9954 4.32227 5.9954 3.84918 5.9954C3.70884 5.9954 3.70884 5.9954 3.70884 6.1391C3.70884 7.70204 3.70884 9.26498 3.70884 10.8279C3.70884 10.9991 3.70884 11 3.54114 11H1.84384C1.67349 11 1.67261 11 1.67261 10.8306V6.18434C1.67261 5.9954 1.67261 5.9954 1.47931 5.9954C1.03093 5.9954 0.582554 5.9954 0.134176 5.9954C0.0326734 5.9954 -0.00086573 5.96348 1.69042e-05 5.86058C0.00472428 5.28875 0.00472428 4.71631 1.69042e-05 4.14329C1.69042e-05 4.0404 0.0317908 4.00759 0.134176 4.00847C0.596676 4.00847 1.05918 4.00847 1.52168 4.00847C1.67261 4.00847 1.67261 4.00847 1.67261 3.85236C1.67261 3.44521 1.66819 3.03718 1.67261 2.62914C1.6661 2.22081 1.73493 1.81479 1.87561 1.43166C2.17394 0.68035 2.73 0.238616 3.50584 0.0620983C3.6197 0.0363745 3.7362 0.0204016 3.85183 0L4.91982 0.00177578Z" fill="white"/>
</svg>
