<svg width="12" height="12" viewBox="0 0 12 12" fill="none" xmlns="http://www.w3.org/2000/svg">
<path fill-rule="evenodd" clip-rule="evenodd" d="M0.500565 1.41802C0.500565 1.17429 0.597388 0.940539 0.769734 0.768194C0.94208 0.595848 1.17583 0.499025 1.41956 0.499025H10.5806C10.7014 0.498827 10.821 0.522456 10.9326 0.568558C11.0443 0.61466 11.1457 0.68233 11.2312 0.767693C11.3166 0.853056 11.3844 0.954436 11.4306 1.06603C11.4769 1.17762 11.5006 1.29724 11.5006 1.41802V10.579C11.5007 10.6998 11.477 10.8195 11.4308 10.9311C11.3847 11.0428 11.317 11.1442 11.2316 11.2297C11.1462 11.3151 11.0448 11.3829 10.9331 11.4291C10.8215 11.4753 10.7019 11.4991 10.5811 11.499H1.41956C1.29884 11.499 1.17929 11.4752 1.06776 11.429C0.956232 11.3828 0.8549 11.3151 0.769557 11.2297C0.684213 11.1443 0.616531 11.0429 0.570376 10.9314C0.524221 10.8198 0.500499 10.7003 0.500565 10.5795V1.41802ZM4.85456 4.69302H6.34406V5.44102C6.55906 5.01102 7.10906 4.62402 7.93556 4.62402C9.52006 4.62402 9.89557 5.48053 9.89557 7.05202V9.96302H8.29206V7.41002C8.29206 6.51502 8.07706 6.01003 7.53106 6.01003C6.77356 6.01003 6.45856 6.55452 6.45856 7.41002V9.96302H4.85456V4.69302ZM2.10456 9.89452H3.70856V4.62402H2.10456V9.89402V9.89452ZM3.93806 2.90502C3.94109 3.04236 3.91665 3.17892 3.86618 3.30668C3.81572 3.43445 3.74024 3.55084 3.64418 3.64904C3.54812 3.74724 3.43341 3.82526 3.30679 3.87853C3.18017 3.93179 3.04418 3.95923 2.90681 3.95923C2.76945 3.95923 2.63346 3.93179 2.50684 3.87853C2.38022 3.82526 2.26551 3.74724 2.16945 3.64904C2.07339 3.55084 1.99791 3.43445 1.94744 3.30668C1.89698 3.17892 1.87254 3.04236 1.87556 2.90502C1.8815 2.63545 1.99276 2.37892 2.18551 2.19037C2.37826 2.00182 2.63718 1.89623 2.90681 1.89623C3.17645 1.89623 3.43537 2.00182 3.62812 2.19037C3.82087 2.37892 3.93213 2.63545 3.93806 2.90502Z" fill="white"/>
</svg>
